<?xml version="1.0" encoding="UTF-8"?>
<svg width="32px" height="32px" viewBox="0 0 32 32" version="1.1" xmlns="http://www.w3.org/2000/svg" xmlns:xlink="http://www.w3.org/1999/xlink">
    <title>Controls/Button/circle Copy 5</title>
    <defs>
        <circle id="path-1" cx="16" cy="16" r="16"></circle>
    </defs>
    <g id="Symbols" stroke="none" stroke-width="1" fill="none" fill-rule="evenodd">
        <g id="footer-large" transform="translate(-457.000000, -160.000000)">
            <g id="Controls/Button/circle-Copy-5" transform="translate(457.000000, 160.000000)">
                <mask id="mask-2" fill="white">
                    <use xlink:href="#path-1"></use>
                </mask>
                <use id="ð¨-Color" fill="#1c164e" xlink:href="#path-1"></use>
                <g id="3-.ic/solid/ic_tick" mask="url(#mask-2)" fill="#F9F9FA">
                    <g transform="translate(11.000000, 10.000000)" id="Combined-Shape">
                        <path d="M11.3368215,7.35901435 L9.10092155,7.35901435 C8.99891466,7.35929064 8.91139918,7.43179325 8.89215418,7.53196867 C8.60138628,8.99859854 7.30756861,10.1042556 5.75566956,10.1042556 C4.20377051,10.1042556 2.90981072,8.99845642 2.61904282,7.53196867 C2.59980809,7.43184559 2.51237092,7.35935851 2.41041757,7.35901435 L0.247564849,7.35901435 C0.187122018,7.35922052 0.129608102,7.38507586 0.0893342192,7.43014684 C0.0490603364,7.47521781 0.0298130054,7.53526687 0.0363815162,7.59535209 C0.36026228,10.4873984 2.81359866,12.7355203 5.79205108,12.7355203 C8.77050349,12.7355203 11.2238399,10.4873984 11.5477206,7.59535209 C11.5542841,7.53531591 11.535074,7.47531321 11.4948631,7.43025207 C11.4546522,7.38519094 11.3972147,7.35930084 11.3368215,7.35901435 Z M5.81052606,13.4175316 C5.45960234,13.410902 5.12109662,13.5473951 4.8729252,13.7955933 C4.62475379,14.0437916 4.48829724,14.382312 4.49496475,14.733235 C4.50789724,15.4236311 5.07124228,15.9869762 5.7616384,15.9997666 C6.11254885,16.0064353 6.45105568,15.8699745 6.69923164,15.6217985 C6.94740761,15.3736225 7.08386846,15.0351157 7.07719971,14.6842053 C7.06455145,13.9938091 6.50149064,13.4308904 5.81052606,13.4175316 Z M0.268740028,6.37230895 L2.38298931,6.37230895 C2.50778915,6.37212065 2.61609236,6.28617226 2.64462358,6.16467739 C2.9793051,4.7564569 4.24512606,3.70920927 5.75566956,3.70920927 C7.26621306,3.70920927 8.53203402,4.7564569 8.86671554,6.16467739 C8.89518792,6.28615022 9.00344277,6.37210693 9.12820769,6.37230895 L11.2521208,6.37230895 C11.3302505,6.37253319 11.4045937,6.33867437 11.4557094,6.27958552 C11.506825,6.22049667 11.52963,6.14205396 11.5181607,6.06477033 C11.0949413,3.28272126 8.69248219,1.15113391 5.79233531,1.15113391 C4.63995232,1.14927684 3.51345627,1.49281433 2.55821747,2.13741408 L2.55821747,0.268740028 C2.55821747,0.120319009 2.43789847,0 2.28947745,0 L0.268740028,0 C0.120319009,0 0,0.120319009 0,0.268740028 L0,6.10356781 C0,6.17484209 0.0283136002,6.24319717 0.0787121318,6.2935957 C0.129110663,6.34399424 0.197465741,6.37230895 0.268740028,6.37230895 L0.268740028,6.37230895 Z"></path>
                    </g>
                </g>
            </g>
        </g>
    </g>
</svg>