<?xml version="1.0" encoding="UTF-8"?>
<svg width="32px" height="32px" viewBox="0 0 32 32" version="1.1" xmlns="http://www.w3.org/2000/svg" xmlns:xlink="http://www.w3.org/1999/xlink">
    <title>Controls/Button/circle</title>
    <defs>
        <circle id="path-1" cx="16" cy="16" r="16"></circle>
        <path d="M8.55415942,0.00332906797 L6.42211917,0 C4.02684506,0 2.47891371,1.5455198 2.47891371,3.93762159 L2.47891371,5.7531288 L0.335242591,5.7531288 C0.150003955,5.7531288 0,5.89927489 0,6.07954392 L0,8.71000697 C0,8.890276 0.150174997,9.03625563 0.335242591,9.03625563 L2.47891371,9.03625563 L2.47891371,15.6737513 C2.47891371,15.8540204 2.62891767,16 2.8141563,16 L5.61103735,16 C5.79627599,16 5.94627994,15.8538539 5.94627994,15.6737513 L5.94627994,9.03625563 L8.45273144,9.03625563 C8.63797007,9.03625563 8.78797403,8.890276 8.78797403,8.71000697 L8.78900028,6.07954392 C8.78900028,5.99298815 8.75359456,5.91009436 8.69082209,5.84883951 C8.62804963,5.78758466 8.54252856,5.7531288 8.45358665,5.7531288 L5.94627994,5.7531288 L5.94627994,4.21410068 C5.94627994,3.47438178 6.12741356,3.09886292 7.1175765,3.09886292 L8.55381734,3.09836356 C8.73888493,3.09836356 8.88888889,2.95221747 8.88888889,2.77211489 L8.88888889,0.329577729 C8.88888889,0.149641605 8.73905598,0.00366197476 8.55415942,0.00332906797 Z" id="path-3"></path>
    </defs>
    <g id="Symbols" stroke="none" stroke-width="1" fill="none" fill-rule="evenodd">
        <g id="footer-M" transform="translate(-266.000000, -484.000000)">
            <g id="Group" transform="translate(78.000000, 484.000000)">
                <g id="Controls/Button/circle" transform="translate(188.000000, 0.000000)">
                    <mask id="mask-2" fill="white">
                        <use xlink:href="#path-1"></use>
                    </mask>
                    <use id="ð¨-Color" fill="#1c164e" xlink:href="#path-1"></use>
                    <g id="3-.ic/solid/ic_tick" mask="url(#mask-2)">
                        <g transform="translate(11.333333, 8.000000)">
                            <mask id="mask-4" fill="white">
                                <use xlink:href="#path-3"></use>
                            </mask>
                            <use id="Shape" stroke="none" fill="#F9F9FA" fill-rule="evenodd" xlink:href="#path-3"></use>
                        </g>
                    </g>
                </g>
            </g>
        </g>
    </g>
</svg>