<?xml version="1.0" encoding="UTF-8"?>
<svg width="32px" height="32px" viewBox="0 0 32 32" version="1.1" xmlns="http://www.w3.org/2000/svg" xmlns:xlink="http://www.w3.org/1999/xlink">
    <title>Controls/Button/circle Copy 4</title>
    <defs>
        <circle id="path-1" cx="16" cy="16" r="16"></circle>
    </defs>
    <g id="Symbols" stroke="none" stroke-width="1" fill="none" fill-rule="evenodd">
        <g id="footer-M" transform="translate(-78.000000, -484.000000)">
            <g id="Controls/Button/circle-Copy-4" transform="translate(78.000000, 484.000000)">
                <mask id="mask-2" fill="white">
                    <use xlink:href="#path-1"></use>
                </mask>
                <use id="ð¨-Color" fill="#1c164e" xlink:href="#path-1"></use>
                <g id="3-.ic/solid/ic_tick" mask="url(#mask-2)" fill="#F9F9FA">
                    <g transform="translate(8.014011, 8.031189)" id="Combined-Shape">
                        <path d="M8.92167928,0.000882719948 C10.2586907,0.00399339138 10.5658098,0.0161427784 11.2780214,0.0499512515 C12.1263401,0.0873537934 12.7065058,0.224537045 13.2147905,0.421052632 C13.7450049,0.620614051 14.2284357,0.935672515 14.6276803,1.3411306 C15.036306,1.74037524 15.3481969,2.22063841 15.5509259,2.75706629 C15.7474415,3.26242688 15.8846247,3.84563839 15.9220273,4.69395712 C15.928261,4.83587151 15.9335438,4.96167018 15.9380195,5.08281836 L15.9441456,5.26248591 C15.9543329,5.59073687 15.95896,5.92717127 15.9610182,6.51022975 L15.9619041,6.85415338 C15.9620153,6.91602814 15.9621097,6.9802994 15.9621897,7.0471463 L15.9621213,8.71321781 C15.9598144,10.228942 15.9485411,10.5298032 15.9158138,11.2748538 C15.8784113,12.1231725 15.7411062,12.7033382 15.5447125,13.2117446 C15.1298733,14.2846004 14.2815546,15.1329191 13.208577,15.5477583 C12.7033382,15.7442739 12.1201267,15.8814571 11.271808,15.9188597 C10.5267574,15.9516935 10.2258962,15.9628868 8.71017198,15.9651721 L7.25254228,15.9651721 C5.7367964,15.9628868 5.43585527,15.9516935 4.69091128,15.9188597 C3.84247077,15.8814571 3.26242688,15.7442739 2.75402046,15.5477583 C2.22380604,15.3481969 1.74037524,15.0331384 1.3411306,14.6276803 C0.935672515,14.2284357 0.620735844,13.7481725 0.418006799,13.2117446 C0.221491212,12.706384 0.0841861676,12.1231725 0.0467836257,11.2748538 C0.0156148408,10.5652818 0.00390540178,10.2586027 0.000868055014,8.92166461 L0.000882719948,7.04713164 C0.00399339138,5.71012021 0.0161427784,5.40300113 0.0499512515,4.69078949 C0.0873537934,3.84247077 0.224537045,3.26242688 0.421052632,2.75402046 C0.620735844,2.22380604 0.935672515,1.74037524 1.3411306,1.3411306 C1.74037524,0.932504889 2.22063841,0.620614051 2.75718809,0.417885006 C3.26242688,0.221491212 3.84563839,0.0841861676 4.69395712,0.0467836257 C4.8713501,0.0389914295 5.02356229,0.0324154424 5.17298667,0.0268871136 L5.35239094,0.0207452077 C5.74441118,0.00848056479 6.17813653,0.00284233041 7.0471463,0.000868055014 Z M8.70730061,1.45076854 L7.24744442,1.45081257 C6.29656779,1.45237504 5.84268283,1.45771124 5.44034734,1.47018707 L5.25669236,1.47646435 C5.10399347,1.48213831 4.94878273,1.48894504 4.76571637,1.49707602 C3.9891569,1.53143273 3.56493664,1.66240253 3.28423488,1.77156432 C2.93798734,1.89936649 2.6260965,2.10209553 2.36732454,2.36720274 C2.0990497,2.62305067 1.89632065,2.93798734 1.76839669,3.28423488 C1.6592349,3.56493664 1.52826511,3.98598927 1.49403019,4.76571637 C1.46140033,5.49522736 1.45014291,5.78374666 1.44776133,7.2472678 L1.44776133,8.73383512 C1.45014291,10.1968023 1.46140033,10.4833778 1.49403019,11.2156433 C1.52826511,11.9922027 1.6592349,12.416423 1.76839669,12.6971247 C1.89632065,13.0432505 2.0990497,13.3551413 2.36415691,13.6140351 C2.61988304,13.8791423 2.9349415,14.0818713 3.28106726,14.2097953 C3.56176901,14.3189571 3.98282165,14.4499269 4.76254874,14.4841618 C5.45568479,14.5151602 5.75074273,14.5268699 7.03330367,14.5300053 L8.94160442,14.5300053 C10.2234896,14.5268699 10.5168235,14.5151602 11.2124756,14.4841618 C11.9891569,14.4499269 12.4132554,14.3189571 12.6939571,14.2097953 C13.389498,13.9415205 13.9415205,13.389498 14.2097953,12.6939571 C14.3189571,12.4132554 14.4499269,11.9922027 14.4842836,11.2124756 C14.5154524,10.5107212 14.5271618,10.2204895 14.5301992,8.91046168 L14.530861,8.48542814 C14.5310021,8.33259812 14.5310672,8.16813881 14.5310672,7.99061892 L14.5310125,7.72320737 C14.5309755,7.6374845 14.5309192,7.55510833 14.5308422,7.47587609 L14.530118,7.03658758 C14.5269567,5.75470241 14.5151814,5.46136854 14.4842836,4.76571637 C14.4499269,3.9890351 14.3189571,3.56493664 14.2097953,3.28423488 C14.0818713,2.93798734 13.8791423,2.6260965 13.6140351,2.36720274 C13.358309,2.10209553 13.0432505,1.89936649 12.6971247,1.77156432 C12.416423,1.66240253 11.9953704,1.53143273 11.2156433,1.49707602 C10.4814663,1.4643488 10.196329,1.4530755 8.70730061,1.45076854 Z M7.98440546,3.88304094 C10.2487817,3.88304094 12.08577,5.72002926 12.08577,7.98440546 C12.08577,10.2487817 10.2487817,12.08577 7.98440546,12.08577 C5.72015105,12.08577 3.88304094,10.2487817 3.88304094,7.98440546 C3.88304094,5.72002926 5.72015105,3.88304094 7.98440546,3.88304094 Z M7.98440546,5.32395225 C6.51547269,5.32395225 5.32395225,6.51535089 5.32395225,7.98440546 C5.32395225,9.45346002 6.51547269,10.6448587 7.98440546,10.6448587 C9.45346002,10.6448587 10.6448587,9.45346002 10.6448587,7.98440546 C10.6448587,6.51535089 9.45346002,5.32395225 7.98440546,5.32395225 Z M12.2479289,2.76340154 C12.7768031,2.76340154 13.2055312,3.1920078 13.2055312,3.72088206 C13.2055312,4.2496345 12.7768031,4.67836257 12.2479289,4.67836257 C11.7191764,4.67836257 11.2904483,4.2496345 11.2904483,3.72088206 C11.2904483,3.1920078 11.7191764,2.76340154 12.2479289,2.76340154 Z"></path>
                    </g>
                </g>
            </g>
        </g>
    </g>
</svg>