<svg width="32" height="32" viewBox="0 0 32 32" xmlns="http://www.w3.org/2000/svg" xmlns:xlink="http://www.w3.org/1999/xlink">
    <defs>
        <circle id="ufdirncw0a" cx="16" cy="16" r="16"/>
    </defs>
    <g fill="none" fill-rule="evenodd">
        <mask id="eu0uofvt2b" fill="#fff">
            <use xlink:href="#ufdirncw0a"/>
        </mask>
        <use fill="#1c164e" xlink:href="#ufdirncw0a"/>
        <g mask="url(#eu0uofvt2b)" fill="#F9F9FA">
            <path d="M23.325 12.006a4.327 4.327 0 0 1-2.541-.814 4.025 4.025 0 0 1-1.6-2.436 3.9 3.9 0 0 1-.08-.756h-2.726v7.139l-.003 3.91c0 1.045-.71 1.931-1.695 2.243-.286.09-.594.133-.916.117a2.534 2.534 0 0 1-1.128-.332c-.711-.408-1.193-1.147-1.206-1.993-.02-1.321 1.094-2.399 2.472-2.399.272 0 .533.043.778.12v-2.653a5.592 5.592 0 0 0-.786-.055c-1.508 0-2.919.6-3.927 1.683a4.798 4.798 0 0 0-1.29 2.957c-.093 1.437.456 2.804 1.52 3.813.157.148.321.285.493.412A5.376 5.376 0 0 0 13.894 24c.265 0 .528-.019.786-.055a5.296 5.296 0 0 0 2.91-1.395c.983-.93 1.525-2.166 1.531-3.481l-.014-5.84c.469.347.981.634 1.53.857a7.15 7.15 0 0 0 2.696.52v-2.6h-.008z"/>
        </g>
    </g>
</svg>
