<?xml version="1.0" encoding="UTF-8"?>
<svg width="32px" height="32px" viewBox="0 0 32 32" version="1.1" xmlns="http://www.w3.org/2000/svg" xmlns:xlink="http://www.w3.org/1999/xlink">
    <title>Controls/Button/circle Copy 3</title>
    <defs>
        <circle id="path-1" cx="16" cy="16" r="16"></circle>
        <path d="M16,10 C16,11.1 15.1,12 14,12 L2,12 C0.9,12 0,11.1 0,10 L0,2 C0,0.9 0.9,0 2,0 L14,0 C15.1,0 16,0.9 16,2 L16,10 Z M6.88532066,3.21249976 C6.39637156,2.9460225 6,3.17883335 6,3.72176645 L6,8.26823355 C6,8.81597104 6.39367676,9.04610229 6.88532066,8.77897577 L11.1146793,6.48102423 C11.6036284,6.21536188 11.6063232,5.78544617 11.1146793,5.51750024 L6.88532066,3.21249976 Z" id="path-3"></path>
    </defs>
    <g id="Symbols" stroke="none" stroke-width="1" fill="none" fill-rule="evenodd">
        <g id="footer-M" transform="translate(-125.000000, -484.000000)">
            <g id="Group" transform="translate(78.000000, 484.000000)">
                <g id="Controls/Button/circle-Copy-3" transform="translate(47.000000, 0.000000)">
                    <mask id="mask-2" fill="white">
                        <use xlink:href="#path-1"></use>
                    </mask>
                    <use id="ð¨-Color" fill="#1c164e" xlink:href="#path-1"></use>
                    <g id="3-.ic/solid/ic_tick" mask="url(#mask-2)">
                        <g transform="translate(8.000000, 10.000000)">
                            <mask id="mask-4" fill="white">
                                <use xlink:href="#path-3"></use>
                            </mask>
                            <use id="Icon" stroke="none" fill="#F9F9FA" fill-rule="evenodd" xlink:href="#path-3"></use>
                        </g>
                    </g>
                </g>
            </g>
        </g>
    </g>
</svg>